<?xml version="1.0" encoding="UTF-8"?><svg id="Capa_10" xmlns="http://www.w3.org/2000/svg" viewBox="0 0 554.91 215.41"><defs><style>.cls-1{fill:#b7ae55;fill-rule:evenodd;stroke:#897903;stroke-linecap:round;stroke-linejoin:round;stroke-width:10px;}</style></defs><path class="cls-1" d="M455.26,175.97c-5.04-5.49-6.38-13.33-1.9-18.48l2.35-2.01,2.47-1.46c6.05-2.58,13.22,2.02,12.32,9.63l-.12,1.68-1.56-.78c-3.47-1.91-4.37-1.12-4.93-.67-1.23.78-2.01,4.25,1.12,5.82l1.57.56,3.02-.22c3.02-.9,6.05-3.7,6.38-8.29.56-6.94-4.59-12.43-9.63-13.33-1.23-.22-2.69,0-4.25.22l-370.06-2.9c-13.78,2.24-21.73-5.71-21.84-15.9l-.12-77.17c1.23-14.56,18.48-24.98,29.57-13.22,5.15,5.49,6.38,13.33,1.9,18.48l-2.24,2.02-2.46,1.45c-6.16,2.58-13.22-2.01-12.43-9.63l.22-1.68,1.46.78c3.47,1.9,4.37,1.12,5.04.67,1.12-.78,2.02-4.25-1.23-5.83l-1.45-.56-3.03.22c-3.13.78-6.05,3.69-6.5,8.29-.56,6.83,4.59,12.43,9.63,13.33,1.34.23,2.69,0,4.37-.22l369.95,2.9c13.89-2.24,21.84,5.72,21.84,15.79l.11,77.16c-1.12,14.67-18.48,25.09-29.57,13.33Z"/></svg>