<?xml version="1.0" encoding="UTF-8"?><svg id="Capa_10" xmlns="http://www.w3.org/2000/svg" viewBox="0 0 554.91 215.41"><defs><style>.cls-1{fill:#f5c211;stroke:#876400;stroke-linecap:round;stroke-linejoin:round;stroke-width:10px;}</style></defs><path id="path9" class="cls-1" d="M96.24,63.36c-.02.1,0,0-.02.13-.5,2.49.12.03-.62,2.46-.74,2.43.12.05-.86,2.4-.97,2.35.11.05-1.09,2.3-1.2,2.24.11.07-1.31,2.18-1.41,2.11.1.07-1.51,2.04-1.61,1.97.09.09-1.71,1.88-1.8,1.8.08.09-1.88,1.71-1.97,1.61.08.1-2.04,1.52-2.11,1.41.06.11-2.18,1.31-2.24,1.2.05.12-2.3,1.09-2.35.97.04.12-2.4.86-2.43.74.03.12-2.47.62-.13.03-.02,0-.13.02v47.68c.1.02,0,0,.13.02,2.49.5.03-.12,2.47.62,2.43.74.05-.12,2.4.86,2.35.97.05-.11,2.3,1.09,2.24,1.2.07-.11,2.18,1.31,2.11,1.41.07-.1,2.04,1.52,1.97,1.61.09-.09,1.88,1.71,1.8,1.8.09-.08,1.71,1.88,1.61,1.97.1-.08,1.51,2.04,1.41,2.11.11-.06,1.31,2.18,1.2,2.24.12-.05,1.09,2.3.97,2.35.12-.04.86,2.4.74,2.43.12-.03.62,2.47.03.13,0,.03.02.13h362.43c.02-.1,0,0,.02-.13.5-2.49-.12-.03.62-2.47.74-2.43-.12-.05.86-2.4.97-2.35-.11-.05,1.09-2.3,1.2-2.24-.11-.07,1.31-2.18,1.41-2.11-.1-.07,1.52-2.04,1.61-1.97-.09-.09,1.71-1.88,1.8-1.8-.08-.09,1.88-1.71,1.97-1.61-.08-.1,2.04-1.52,2.11-1.41-.06-.11,2.18-1.31,2.24-1.2-.05-.12,2.3-1.09,2.35-.97-.04-.12,2.4-.86,2.43-.74-.03-.12,2.46-.62.13-.03.03,0,.13-.02v-47.68c-.1-.02,0,0-.13-.02-2.49-.5-.03.12-2.46-.62-2.43-.74-.05.12-2.4-.86-2.35-.97-.05.11-2.3-1.09-2.24-1.2-.07.11-2.18-1.31-2.11-1.41-.07.1-2.04-1.52-1.97-1.61-.09.09-1.88-1.71-1.8-1.8-.09.08-1.71-1.88-1.61-1.97-.1.08-1.52-2.04-1.41-2.11-.11.06-1.31-2.18-1.2-2.24-.12.05-1.09-2.3-.97-2.35-.12.04-.86-2.4-.74-2.43-.12.03-.62-2.46-.03-.13,0-.03-.02-.13H96.24Z"/></svg>