<?xml version="1.0" encoding="UTF-8"?><svg id="Capa_10" xmlns="http://www.w3.org/2000/svg" viewBox="0 0 554.91 215.41"><defs><style>.cls-1{fill:#f57657;stroke:#7c1400;stroke-linecap:round;stroke-linejoin:round;stroke-width:10px;}</style></defs><path class="cls-1" d="M455.58,107.7c8.61-4.5,14.5-13.51,14.5-23.9,0-14.89-12.07-26.96-26.96-26.96s-26.96,12.07-26.96,26.96H138.76c0-14.89-12.08-26.96-26.97-26.96s-26.96,12.07-26.96,26.96c0,10.39,5.89,19.4,14.51,23.9-8.62,4.51-14.51,13.51-14.51,23.9,0,14.9,12.07,26.96,26.96,26.96s26.97-12.07,26.97-26.96h277.4c0,14.9,12.07,26.96,26.96,26.96s26.96-12.07,26.96-26.96c0-10.4-5.89-19.4-14.5-23.9Z"/></svg>