<?xml version="1.0" encoding="UTF-8"?><svg xmlns="http://www.w3.org/2000/svg" viewBox="0 0 457.38 417.54"><defs><style>.cls-1{fill:#d6b1e5;}.cls-1,.cls-2{stroke-width:0px;}.cls-3{fill:#b526ea;stroke:#1d1d1b;stroke-miterlimit:10;stroke-width:5px;}.cls-4{isolation:isolate;}.cls-5{mix-blend-mode:soft-light;}.cls-2{fill:#fff;}.cls-6{mix-blend-mode:multiply;}</style></defs><g class="cls-4"><g id="Capa_18"><path class="cls-3" d="M365.55,52.5H91.85c-5.8,0-10.51,4.59-10.51,10.25v196.69c0,3.3,1.63,6.41,4.38,8.32l136.32,94.97c.66.52,1.35.96,2.12,1.31,1.24.57,2.54.9,3.89.98.24,0,.42.02.63.02,1.61,0,3.19-.37,4.64-1.04.7-.33,1.35-.75,2-1.24l136.32-94.99c2.75-1.91,4.38-5.02,4.38-8.32V62.75c0-5.65-4.71-10.25-10.49-10.25Z"/><g class="cls-6"><path class="cls-1" d="M91.4,262.86c37.13,24.43,76.13,50.61,112.88,75.48,4.82,3.18,16.09,11.05,20.8,13.99,2.65,1.23,5.79.99,8.2-.59,0,0,1.66-1.17,1.66-1.17,2.06-1.41,8.27-5.77,10.45-7.27,31.76-22.12,80.04-55.34,111.77-77.08.69-.57,7.87-5.26,8.44-5.88,1.67-1.5,2.54-3.75,2.43-5.98.24-54.93.63-112.59,1.56-167.55,0,0,.26-16.97.26-16.97.75-5.81-3.79-11.11-9.72-11.15,6.05-.17,10.96,5.09,10.42,11.15,0,0,.26,16.97.26,16.97.92,54.97,1.33,112.6,1.56,167.55.26,4.25-2.11,8.55-5.7,10.71,0,0-6.98,4.82-6.98,4.82-31.52,21.86-79.97,55.08-111.86,76.82-1.96,1.3-8.53,5.83-10.52,7.16,0,0-1.82,1.25-1.82,1.25-3.52,2.31-8.33,2.6-12.07.78-1.36-.56-2.66-1.75-3.88-2.52,0,0-3.48-2.43-3.48-2.43l-13.89-9.72c-36.35-25.37-74.71-52.5-110.77-78.39h0Z"/></g><g class="cls-5"><path class="cls-2" d="M360.12,58.71c-77.66,1.8-159.25,2.22-237.12,2.3-6.76,0-19.23-.05-25.89-.03-4.18-.04-7.94,3.64-7.69,7.85,0,0,0,.93,0,.93v1.85c-.16,58.96-.72,118.84-1.88,177.84,0,0-.09,3.71-.09,3.71-.01,1.24-.13,2.47.1,3.66.42,2.39,1.83,4.61,3.84,6.05-2.07-1.35-3.63-3.52-4.18-5.98-.43-2-.25-5.34-.37-7.43-1.06-54.05-1.62-109.02-1.83-163.02,0-1.87-.04-16.02-.05-17.6-.31-6.6,5.53-12.41,12.06-12.37,17.56-.12,66.99.04,85.26.07,58.94.27,118.86.81,177.84,2.18h0Z"/></g></g></g></svg>