<?xml version="1.0" encoding="UTF-8"?><svg xmlns="http://www.w3.org/2000/svg" viewBox="0 0 457.38 417.54"><defs><style>.cls-1{isolation:isolate;}.cls-2{mix-blend-mode:soft-light;}.cls-3{fill:#d6d903;stroke:#1d1d1b;stroke-miterlimit:10;stroke-width:5px;}.cls-4{fill:#fff;}.cls-4,.cls-5{stroke-width:0px;}.cls-6{mix-blend-mode:multiply;}.cls-5{fill:#e0e0a0;}</style></defs><g class="cls-1"><g id="Capa_18"><path class="cls-3" d="M228.69,344.53c-6.84,0-12.79-3.07-16.74-8.64L48.07,105.47c-4.54-6.39-5.11-14.36-1.51-21.33,3.59-6.97,10.41-11.13,18.26-11.13h327.74c7.85,0,14.67,4.16,18.26,11.13,3.6,6.96,3.04,14.94-1.51,21.33l-163.87,230.42c-3.96,5.57-9.9,8.64-16.74,8.64Z"/><g class="cls-2"><path class="cls-4" d="M404.6,87.35c-2.19-4.15-6.59-6.92-11.28-6.96,0,0-14.07.25-14.07.25-104.25,2.23-212.43,1.73-316.72,1.37-7.34,1.07-11.93,10-8.62,16.63.82,1.79,4.53,6.81,5.7,8.59,8.96,12.93,22.97,33.53,31.84,46.52,0,0,7.87,11.69,7.87,11.69-4.21-5.63-12.71-16.92-16.85-22.6-5.51-7.46-19.83-26.75-25.1-34.02,0,0-4.16-5.69-4.16-5.69-1.48-1.9-2.87-4.39-3.31-6.88-1.66-7.87,4-16.44,11.99-17.79,2.04-.43,5.23-.27,7.35-.34,102.05-.86,208.03-.76,310.01,1.24,4.71.1,9.38.15,14.11.3,4.81.28,9.24,3.33,11.24,7.68h0Z"/></g><g class="cls-6"><path class="cls-5" d="M99.32,165.45c39.2,52.66,78.27,106.66,116.52,159.94.71.95,2.9,4.06,3.61,5.02,3.83,5.98,13.35,6.46,17.73.91,53.7-75.6,110.11-154.36,165.19-228.79,3.66-4.14,4.87-10.16,2.24-15.18,1.32,2.41,1.95,5.23,1.64,8.01-.27,2.79-1.67,5.37-3.28,7.59-45.54,66.68-94.81,136.71-141.69,202.74-1.63,2.04-20.53,29.49-22.19,30.36-6.72,6.07-18.42,4.66-23.35-2.98-.72-.97-2.81-4.02-3.56-5.06-37.78-53.6-75.96-108.27-112.84-162.56h0Z"/></g></g></g></svg>