<?xml version="1.0" encoding="UTF-8"?><svg xmlns="http://www.w3.org/2000/svg" viewBox="0 0 457.38 417.54"><defs><style>.cls-1{mix-blend-mode:multiply;opacity:.26;}.cls-2{isolation:isolate;}.cls-3{mix-blend-mode:soft-light;}.cls-4{fill:#fff;}.cls-4,.cls-5{stroke-width:0px;}.cls-5{fill:#17375c;}.cls-6{fill:#164194;stroke:#1d1d1b;stroke-miterlimit:10;stroke-width:5px;}</style></defs><g class="cls-2"><g id="Capa_18"><path class="cls-6" d="M228.69,373.27c-1.56,0-3.12-.45-4.53-1.34l-81.38-51.79c-.36-.23-.7-.48-1.03-.76-29.46-24.99-47.04-65.11-47.04-107.33v-105.51c0-3.65,1.59-7.06,4.24-9.07l20.59-15.58c32.52-24.61,70.27-37.62,109.15-37.62s76.62,13.01,109.15,37.62l20.59,15.58c2.65,2,4.24,5.41,4.24,9.07v105.51c0,42.22-17.59,82.35-47.05,107.33-.33.28-.67.53-1.03.76l-81.38,51.79c-1.41.9-2.97,1.34-4.53,1.34Z"/><g class="cls-3"><path class="cls-4" d="M148.25,313.05c-23.23-18.13-38.1-45.68-43.94-74.33-1.99-9.62-2.81-19.52-2.87-29.31-.21-19.46-.26-38.93-.38-58.39-.03-6.21-.07-31.72-.09-37.4-.13-4.01,1.41-8.13,4.61-10.69,0,0,2.95-2.25,2.95-2.25,7.73-5.79,15.58-12,23.5-17.49,53.89-37.61,124.85-40.46,180.89-5.78,5.87,3.52,12.57,8.34,17.96,12.55,0,0-6.01-4.14-6.01-4.14-60.57-40.76-137.97-38.83-196.13,5.31-3.78,2.88-13.77,10.42-17.45,13.2,0,0-2.86,2.16-2.86,2.16-1.85,1.47-2.87,3.92-2.93,6.28-.03,6.22-.07,31.6-.1,38.25-.12,19.46-.17,38.93-.38,58.39-.8,38.46,13.69,78.08,43.22,103.64h0Z"/></g><g class="cls-1"><path class="cls-5" d="M354.15,113.04c1.15,34.19,1.93,68.37,1.96,102.57-.05,1.48-.01,3.51-.15,4.95-1.83,35.41-17.36,70.84-44.94,93.64-25.21,15.98-51.56,31.88-77.22,47.21-2.7,1.92-6.62,2.13-9.34.14,2.83,1.72,6.43,1.35,8.97-.72,18.42-12.54,38.3-25.76,56.88-37.92,5.44-3.58,10.89-7.14,16.36-10.67,1.14-.75,1.83-1.13,2.71-1.99,23.16-20.42,37.36-49.95,41.4-80.37.59-3.96.94-7.97,1.15-11.96.71-34.95.85-69.91,2.23-104.87h0Z"/></g></g></g></svg>