<?xml version="1.0" encoding="UTF-8"?><svg xmlns="http://www.w3.org/2000/svg" viewBox="0 0 457.38 417.54"><defs><style>.cls-1{fill:#9b9445;stroke:#1d1d1b;stroke-miterlimit:10;stroke-width:5px;}.cls-2{isolation:isolate;}.cls-3{mix-blend-mode:soft-light;}.cls-4{fill:#c1bea4;}.cls-4,.cls-5{stroke-width:0px;}.cls-5{fill:#fff;}.cls-6{mix-blend-mode:multiply;}</style></defs><g class="cls-2"><g id="Capa_18"><path class="cls-1" d="M393.16,152.09l-147.98-66.47c-5.43-2.44-10.95-3.66-16.48-3.66s-11.05,1.22-16.49,3.66l-147.98,66.47c-3.8,1.71-6.85,4.35-8.96,7.59-2.11,3.26-3.26,7.12-3.26,11.28v75.61c0,4.16,1.16,8.02,3.26,11.28,2.11,3.25,5.16,5.89,8.96,7.59l147.98,66.47c5.43,2.44,10.96,3.66,16.49,3.66s11.05-1.22,16.49-3.66l147.98-66.47c3.8-1.71,6.86-4.35,8.96-7.59,2.11-3.26,3.26-7.12,3.26-11.28v-75.61c0-4.16-1.16-8.02-3.26-11.28-2.1-3.25-5.16-5.89-8.96-7.59Z"/><g class="cls-3"><path class="cls-5" d="M310.34,124.2c-13.21-5.44-34.23-14.45-47.57-20.09-4.09-1.84-13.87-5.91-17.78-7.66-5.65-2.64-11.62-4.77-17.86-4.23-4.14.29-7.96,1.49-11.72,3.32-27.02,12.48-66.41,30.38-93.98,42.79-3.65,1.66-50.58,22.56-53.01,23.63-3.83,1.67-6.02,5.62-5.77,9.75-.03,1.03,0,3.78-.03,4.84-.07,12.86-.38,38.77-.53,51.63,0,0-.19,12.91-.19,12.91.04,3.92-.73,8.45,1.71,11.8,1.07,1.61,2.62,2.91,4.4,3.79,0,0,5.82,2.76,5.82,2.76,0,0,11.66,5.53,11.66,5.53,5.84,2.7,17.49,8.37,23.29,11.16-5.95-2.45-17.89-7.47-23.81-10,0,0-11.88-5.04-11.88-5.04l-5.95-2.53c-2.12-.93-4.05-2.4-5.45-4.32-2.91-3.73-2.45-8.75-2.54-13.15,0,0-.19-12.91-.19-12.91-.13-14.49-.49-40.39-.55-54.86,0,0-.01-1.61-.01-1.61-.4-5.66,2.9-11.44,8.12-13.76,2.27-1.06,49.4-22.38,52.96-23.98,27.74-12.3,66.93-29.95,94.41-41.83,8.02-3.92,18.03-4.58,26.35-1.07,22.32,10.17,48,22.52,70.12,33.13h0Z"/></g><g class="cls-6"><path class="cls-4" d="M108.77,276.14c34.14,14.4,73.04,31.2,106.98,46.09,7.8,3.73,16.93,3.87,24.77.23,2.06-.9,8.4-3.83,10.58-4.81,41.87-19.16,96.07-43.5,137.97-62.2,4.39-2.1,5.91-6.1,5.61-10.8,0,0,.02-3.88.02-3.88,0,0,.08-15.53.08-15.53.09-14.24.31-40.32.44-54.35.05-5.03-3.01-8.62-7.6-10.36,0,0-7.04-3.27-7.04-3.27s-14.08-6.54-14.08-6.54c-15.97-7.33-40.45-19.1-56.17-26.51,7.14,3.04,21.49,9.05,28.6,12.15,9.47,4.06,33.7,14.42,42.82,18.42,0,0,7.13,3.1,7.13,3.1,2.6,1.05,5.18,2.5,6.88,4.81,1.82,2.34,2.75,5.29,2.78,8.19,0,0,.07,7.77.07,7.77,0,0,.14,15.53.14,15.53.08,10.38.27,36.58.31,46.59,0,0,.02,3.88.02,3.88.47,6.3-2.14,12.07-8,14.91-41.79,18.97-96.15,43.29-138.27,61.9-1.91.81-8.71,3.88-10.68,4.72-8.78,3.95-19.28,3.61-27.85-.68-33.68-15.49-72.07-33.39-105.52-49.36h0Z"/></g></g></g></svg>