<?xml version="1.0" encoding="UTF-8"?><svg xmlns="http://www.w3.org/2000/svg" viewBox="0 0 457.38 417.54"><defs><style>.cls-1{fill:#ed8e0a;stroke:#1d1d1b;stroke-miterlimit:10;stroke-width:5px;}.cls-2{isolation:isolate;}.cls-3{mix-blend-mode:soft-light;}.cls-4{fill:#fff;}.cls-4,.cls-5{stroke-width:0px;}.cls-5{fill:#d3b998;}.cls-6{mix-blend-mode:multiply;}</style></defs><g class="cls-2"><g id="Capa_18"><polygon class="cls-1" points="393.9 83.28 63.49 83.28 27.99 209.26 228.69 334.26 429.39 209.26 393.9 83.28"/><g class="cls-3"><path class="cls-4" d="M396.7,125.16c-2.52-7.73-7.15-23.36-9.56-31.12,0,0,.63.48.63.48-53.09,1.01-106.18,1.39-159.27,1.64-51.4.14-107.68.12-159.27-.23,0,0,1.97-1.49,1.97-1.49-5.21,17.94-18.74,64.25-23.91,81.59,0,0-8.16,27.14-8.16,27.14l-.3-.75s13.85,8.65,13.85,8.65c0,0,13.8,8.73,13.8,8.73l-14.19-8.08s-14.15-8.17-14.15-8.17c0,0-.43-.25-.43-.25,0,0,.13-.5.13-.5,0,0,7.21-27.41,7.21-27.41,4.57-17.28,17.33-64.2,22.19-82.07,0,0,.4-1.48.4-1.48h1.57c51.65-.34,107.81-.42,159.27-.26,53.09.25,106.18.62,159.27,1.62,0,0,.51,0,.51,0l.12.47c2.1,7.82,6.28,23.64,8.3,31.48h0Z"/></g><g class="cls-6"><path class="cls-5" d="M66.49,219.8c39.51,22.53,83.29,48.06,122.69,71.33,0,0,40.68,24.14,40.68,24.14h-2.35c60.48-36.58,129.75-77.99,190.64-113.51,0,0-.64,1.61-.64,1.61-4.77-17.38-11.05-41.23-15.71-58.63,0,0-5.12-19.58-5.12-19.58,0,0,5.98,19.33,5.98,19.33,5.22,17.26,12.46,40.81,17.58,58.1,0,0,.31,1.03.31,1.03,0,0-.94.58-.94.58-60.33,37.32-129.87,79.24-190.94,115.69-52.78-32.09-110.19-67.12-162.19-100.09h0Z"/></g></g></g></svg>