<?xml version="1.0" encoding="UTF-8"?><svg xmlns="http://www.w3.org/2000/svg" viewBox="0 0 457.38 417.54"><defs><style>.cls-1{isolation:isolate;}.cls-2{mix-blend-mode:soft-light;}.cls-3{fill:#c4a95f;stroke:#1d1d1b;stroke-miterlimit:10;stroke-width:5px;}.cls-4{fill:#fff;}.cls-4,.cls-5{stroke-width:0px;}.cls-5{fill:#d8d0c0;}.cls-6{mix-blend-mode:multiply;}</style></defs><g class="cls-1"><g id="Capa_18"><path class="cls-3" d="M227.58,74.02L35.34,206.55c-1.49,1.02-1.49,3.59,0,4.61l192,132.36c.69.47,1.54.48,2.23,0l192.47-132.36c1.49-1.02,1.49-3.59,0-4.61L229.81,74.02c-.69-.48-1.54-.48-2.23,0Z"/><g class="cls-2"><path class="cls-4" d="M378.01,184.17c-45.98-30.42-102.7-68.7-148.37-99.75,0,0-.91-.62-.91-.62-.12-.08-.05-.02-.04-.03.02,0,.04,0,.02,0l-.84.58c-15.78,11.01-65.07,44.99-81.71,56.47-23.26,15.96-71.88,49.26-94.74,64.78,0,0-3.65,2.49-3.65,2.49-.47.21-.47,1.04-.23,1.35,26.06,18.34,74.85,52.32,100.67,70.72,7.19,5.02,21.63,15.38,28.78,20.47-7.36-4.89-22.1-14.6-29.42-19.54-25.76-17.03-74.89-50.4-100.71-67.79,0,0-.91-.62-.91-.62-2.52-1.42-2.95-5.51-.53-7.33,7.36-5.13,32.38-22.48,40.21-27.91,39.94-27.58,100.13-69.03,140.11-96.18,0,0,.98-.66.98-.66.6-.38,1.36-.6,2.12-.57,1.2,0,2.05.74,2.91,1.32,45.35,31.57,101.38,70.72,146.26,102.82h0Z"/></g><g class="cls-6"><path class="cls-5" d="M73.66,229.59c51.31,33.52,102.94,68.43,153.52,103.04,0,0,1.36.93,1.36.93.08.06.04.03.05.03-.01,0-.03-.02-.06-.02-.06-.01-.13,0-.19.02,0,0,.15-.1.15-.1l.68-.47c32.37-22.3,72.58-49.71,105.06-71.54,23.98-16.18,49.99-33.43,74.23-49.37,0,0,1.38-.91,1.38-.91,0,0,.69-.45.69-.45.19-.14.38-.29.51-.48.58-.76.63-1.95.12-2.81-.24-.43-.69-.7-1.15-1.04,0,0-1.34-.97-1.34-.97,0,0-5.35-3.87-5.35-3.87,0,0,5.53,3.61,5.53,3.61.54.46,2.29,1.28,2.71,2.01,1.04,1.75.44,3.59-1.33,4.59-.81.57-3.18,2.27-4.03,2.87-3.04,2.19-23.3,16.59-26.89,19.17-47.64,33.72-99.47,69.61-147.79,102.63,0,0-.68.47-.68.47-1.23.94-3.02,1.06-4.35.25,0,0-.29-.19-.29-.19,0,0-1.36-.94-1.36-.94-50.43-34.83-101.51-70.54-151.18-106.45h0Z"/></g></g></g></svg>