<?xml version="1.0" encoding="UTF-8"?><svg xmlns="http://www.w3.org/2000/svg" viewBox="0 0 457.38 417.54"><defs><style>.cls-1{isolation:isolate;}.cls-2{mix-blend-mode:soft-light;}.cls-3{fill:#b6e0e0;}.cls-3,.cls-4{stroke-width:0px;}.cls-4{fill:#fff;}.cls-5{fill:#00b3ba;stroke:#1d1d1b;stroke-miterlimit:10;stroke-width:5px;}.cls-6{mix-blend-mode:multiply;}</style></defs><g class="cls-1"><g id="Capa_18"><path class="cls-5" d="M357.57,57.91c-.02-6.56-5.34-11.86-11.9-11.86h-116.98v.12h-116.97c-6.56,0-11.89,5.3-11.9,11.86-.13,47.32-.54,221.09.03,243.44,1.04,40.13,34.18,49.43,77.75,50.5,35.94.88,47.64,13.73,51.11,19.53v-.13c3.48-5.81,15.19-18.64,51.09-19.51,43.58-1.06,76.71-10.36,77.75-50.5.58-22.35.16-196.13.03-243.45Z"/><g class="cls-2"><path class="cls-4" d="M351.57,57.92c-.04-2.53-1.88-4.83-4.25-5.46-1.17-.34-2.42-.16-3.68-.16,0,0-3.76.09-3.76.09-21.52.39-53.52.94-75.14,1.18,0,0-30.06.3-30.06.3l1.83-1.83v.12s.02,1.81.02,1.81l-1.84.02c-30.29.28-63.47.46-93.87.5,0,0-23.47.04-23.47.04,0,0-5.77.02-5.77.02-1.16.03-2.29.71-2.88,1.73-.79.98-.41,3.36-.51,4.5-.13,44.15-.53,102.49-1.05,146.67,0,0-1.29,93.87-1.29,93.87-1.14-31.28-1.46-62.58-1.87-93.87-.44-44.21-.66-102.51-.55-146.68,0,0,0-1.47,0-1.47,0,0,0-.73,0-.73-.31-4.48,3.41-8.7,7.95-8.77,0,0,5.96,0,5.96,0,20.92.04,49.49.06,70.4.21,15.65.07,31.29.17,46.94.33l-1.83,1.83v-.12s.02-1.84.02-1.84c0,0,1.81.02,1.81.02,32.58.27,72.68.85,105.2,1.48,0,0,3.76.09,3.76.09,0,0,1.88.04,1.88.04,3.26-.07,6.21,2.87,6.05,6.1h0Z"/></g><g class="cls-6"><path class="cls-3" d="M105.84,301.31c1.12,30.89,24.72,39.34,51.54,42.06,12.48,1.47,25.03.54,37.52,2.4,6.28.92,12.54,2.33,18.54,4.67,5.99,2.29,11.76,5.54,16.57,10.06,0,0-2.75,0-2.75,0,12.39-11.91,30.27-15.42,46.78-16.65,21.51-1.07,52.33-1.16,67.35-18.7,6.32-7.57,7.97-17.79,7.87-27.44.09-3.95.13-14.35.18-18.42.32-54.57.61-117.71,1.38-172.18.23-16.4.41-32.8.76-49.2.78,32.79,1.32,65.59,1.73,98.39.5,47.12,1,94.35.63,141.48.44,22.34-8.94,37.06-30.4,44.17-15.94,5.31-32.65,5.84-49.23,6.35-15.61,1-32.57,4.11-44.29,15.02,0,0-1.4,1.33-1.4,1.33-4.58-4.76-10.26-8.37-16.52-10.84-6.33-2.6-13.17-4.11-19.99-5.13-3.68-.48-7.82-.93-11.53-1.09-31.78-1.3-75.24-4.94-74.73-46.29h0Z"/></g></g></g></svg>