<?xml version="1.0" encoding="UTF-8"?><svg xmlns="http://www.w3.org/2000/svg" viewBox="0 0 457.38 417.54"><defs><style>.cls-1{isolation:isolate;}.cls-2{mix-blend-mode:soft-light;}.cls-3{fill:#fff;}.cls-3,.cls-4{stroke-width:0px;}.cls-4{fill:#c5e2d6;}.cls-5{fill:#00b878;fill-rule:evenodd;stroke:#1d1d1b;stroke-miterlimit:10;stroke-width:5px;}.cls-6{mix-blend-mode:multiply;}</style></defs><g class="cls-1"><g id="Capa_18"><path class="cls-5" d="M362.79,146.98l-106.51-77.41c-16.5-11.8-38.9-11.8-55.11,0l-106.65,77.41c-16.36,11.93-23.36,32.94-16.9,52.15l40.68,125.17c6.32,19.35,24.05,32.52,44.39,32.52h131.94c20.34,0,38.07-13.18,44.39-32.52l40.82-125.17c6.32-19.21-.69-40.22-17.04-52.15Z"/><g class="cls-2"><path class="cls-3" d="M255.08,75.67c-12.54-8.4-29.12-10.15-42.92-4.15-5.94,2.36-13.45,8.61-18.64,12.43,0,0-18.25,13.6-18.25,13.6-21.1,15.68-51.8,38.2-73.38,53.89-5.81,4.28-10.62,9.89-13.67,16.44-4.74,9.81-5.24,21.31-1.78,31.62,3.37,10.49,6.99,22.1,10.27,32.57,7.74,24.68,15.85,51.36,23.24,76.21,0,0,3.19,10.93,3.19,10.93l-3.85-10.71c-8.6-24.5-17.78-50.77-26-75.31-3.56-10.34-7.34-21.93-10.84-32.37-3.99-11.22-3.48-24.07,1.7-34.85,3.33-7.25,8.63-13.53,15.03-18.26,21.78-15.63,52.34-37.87,73.98-53.06,0,0,18.59-13.14,18.59-13.14,5.44-3.72,13.26-9.88,19.56-12.08,14.5-5.51,31.47-3.2,43.76,6.23h0Z"/></g><g class="cls-6"><path class="cls-4" d="M123.14,319.23c5.76,16.48,21.43,28.9,38.87,29.82,7.26.18,18.79-.18,26.19-.23,34.02-.43,69.58-.68,103.51-.74,17.36.11,33.72-11.43,39.65-27.72,1.37-3.36,2.88-8.84,4.14-12.37,11.47-34.79,23.68-71.21,35.59-105.91,0,0,1.05-3.11,1.05-3.11,0,0,.93-3.06.93-3.06,4.6-16.82-2.28-35.65-16.16-46.23,7.26,5.01,13,12.19,16.23,20.43,3.71,9.26,4.22,19.94,1.25,29.58-.59,1.83-2.29,7.48-2.92,9.42-2.4,7.76-9.22,29.56-11.77,37.64-6.51,20.74-13.31,41.89-19.97,62.61-1.26,3.78-2.76,8.82-4.16,12.57-6.25,17.45-23.53,30.22-42.14,30.56-26.19.13-52.77-.18-78.94-.39-11.91-.13-34.23-.37-46-.57-20.6.79-39.56-12.5-45.35-32.32h0Z"/></g></g></g></svg>