<?xml version="1.0" encoding="UTF-8"?><svg xmlns="http://www.w3.org/2000/svg" viewBox="0 0 457.38 417.54"><defs><style>.cls-1{fill:#e2d6b5;}.cls-1,.cls-2{stroke-width:0px;}.cls-3{isolation:isolate;}.cls-4{mix-blend-mode:soft-light;}.cls-2{fill:#fff;}.cls-5{fill:#f5c211;stroke:#1d1d1b;stroke-miterlimit:10;stroke-width:5px;}.cls-6{mix-blend-mode:multiply;}</style></defs><g class="cls-3"><g id="Capa_18"><circle id="path59" class="cls-5" cx="228.69" cy="208.77" r="144.76" transform="translate(-80.64 222.86) rotate(-45)"/><g id="path59-2" class="cls-4"><path class="cls-2" d="M112.84,283.32c-27.47-39.47-31-92.82-9.97-135.97,24.71-51.53,80.07-83.05,137-77.44,17.74,1.69,35.13,6.87,50.82,15.29,5.17,2.72,10.28,5.96,15.02,9.35-52.87-34.44-127.31-27.24-171.68,17.51-45.71,43.45-54.5,117.65-21.19,171.26h0Z"/></g><g id="path59-3" class="cls-6"><path class="cls-1" d="M305.71,94.54c53.79,34.5,76.26,102.66,54.4,162.6-20.55,57.27-78.57,95.45-139.34,91.05-38.64-2.3-75.53-21.79-99.22-52.33-2.82-3.55-6.26-8.71-8.72-12.56,3.49,4.95,7.74,10.55,11.78,14.97,15.94,17.88,36.73,31.57,59.45,39.14,69.41,23.54,146.44-13.06,171.8-81.84,21.91-58.59.79-124.99-50.16-161.04h0Z"/></g></g></g></svg>