<?xml version="1.0" encoding="UTF-8"?><svg xmlns="http://www.w3.org/2000/svg" viewBox="0 0 457.38 417.54"><defs><style>.cls-1{isolation:isolate;}.cls-2{fill:#db2d4d;stroke:#1d1d1b;stroke-miterlimit:10;stroke-width:5px;}.cls-3{mix-blend-mode:soft-light;}.cls-4{fill:#fff;}.cls-4,.cls-5{stroke-width:0px;}.cls-5{fill:#e2b7c0;}.cls-6{mix-blend-mode:multiply;}</style></defs><g class="cls-1"><g id="Capa_18"><path class="cls-2" d="M129.11,332.68h199.17c12.76,0,23.1-10.34,23.1-23.1V107.96c0-12.76-10.34-23.1-23.1-23.1h-199.17c-12.76,0-23.1,10.34-23.1,23.1v201.62c0,12.76,10.34,23.1,23.1,23.1Z"/><g class="cls-3"><path class="cls-4" d="M328.28,91.36c-61.89,1.63-124.84,2.19-186.75,2.33-3.04.01-8.67.01-11.67.02-4.33-.15-8.68,1.64-11.5,4.98-2.64,2.93-3.68,6.92-3.49,10.8,0,0-.03,13.34-.03,13.34-.1,57.43-.67,115.99-1.98,173.41,0,0-.36,13.34-.36,13.34,0,0-.36-13.34-.36-13.34-1.3-57.42-1.88-115.97-1.98-173.41,0,0-.03-13.34-.03-13.34-.04-2.44.13-4.98.89-7.31,2.43-7.99,10.51-13.54,18.82-13.18,7.87.01,30.15.08,38.35.1,53.05.28,106.99.84,160.07,2.26h0Z"/></g><g class="cls-6"><path class="cls-5" d="M112.51,309.58c.1,8.86,7.94,16.36,16.73,16.03,0,0,3.74-.07,3.74-.07,59.42-1.15,120.18-1.58,179.61-1.7,0,0,14.97-.03,14.97-.03,2.26.04,4.3-.32,6.35-1.19,4.18-1.83,7.35-5.71,8.29-10.17.41-1.9.28-4.07.31-6.05,0-66.31.68-133.84,1.74-200.14-.64-8.08-7.78-14.82-15.98-14.92,4.99-.12,10.06,2.14,13.29,6.1,2.45,2.96,3.81,6.79,3.87,10.63,0,0,.07,3.74.07,3.74,1.15,59.42,1.59,120.18,1.7,179.61,0,0,.03,14.97.03,14.97,0,2.26.09,4.75-.38,7.01-1.6,8.14-8.97,14.62-17.26,15.06-55.27.12-111.47-.38-166.68-1.14,0,0-29.94-.54-29.94-.54,0,0-3.74-.07-3.74-.07-9.17.04-17.09-8.01-16.73-17.16h0Z"/></g></g></g></svg>