<?xml version="1.0" encoding="UTF-8"?><svg xmlns="http://www.w3.org/2000/svg" viewBox="0 0 457.38 417.54"><defs><style>.cls-1{isolation:isolate;}.cls-2{mix-blend-mode:soft-light;}.cls-3{fill:#fff;}.cls-3,.cls-4{stroke-width:0px;}.cls-5{fill:#f5c211;stroke:#1d1d1b;stroke-miterlimit:10;stroke-width:5px;}.cls-4{fill:#c6bda7;}.cls-6{mix-blend-mode:multiply;}</style></defs><g class="cls-1"><g id="Capa_18"><ellipse id="ellipse69" class="cls-5" cx="228.69" cy="208.77" rx="180.01" ry="123.72"/><g id="ellipse69-2" class="cls-2"><path class="cls-3" d="M74.25,261.78c-30.08-39.11-23.65-86.56,10.13-120.99,38.12-38.28,95.08-53.73,147.98-52.72,32.52.61,65.27,7.55,94.56,21.91,16.64,8.27,32.19,18.97,44.9,32.46-3.07-2.84-7.22-6.58-10.49-9.05-5.09-4.18-11.39-8.32-17.02-11.81-17.77-10.43-37.41-18.06-57.47-22.72-57.31-13.21-121.86-6.9-172.68,23.8-50.86,30.68-76,86.41-39.9,139.12h0Z"/></g><g id="ellipse69-3" class="cls-6"><path class="cls-4" d="M391.99,170.26c8.46,15.66,11.84,34.01,9.32,51.66-7.66,50.08-54.88,82.74-100.24,96.95-73.4,23.16-172.57,10.3-223.32-51.98-2.87-3.76-5.53-7.67-7.94-11.72,5.21,7.84,11.36,15.01,18.21,21.45,60.58,55.23,165.17,61.63,237.72,27.77,34.19-15.88,66.52-44.2,73.43-82.8,3.16-17.32.32-35.44-7.18-51.32h0Z"/></g></g></g></svg>