<?xml version="1.0" encoding="UTF-8"?><svg xmlns="http://www.w3.org/2000/svg" viewBox="0 0 457.38 417.54"><defs><style>.cls-1{fill:#d5c8e8;}.cls-1,.cls-2{stroke-width:0px;}.cls-3{isolation:isolate;}.cls-4{mix-blend-mode:soft-light;}.cls-2{fill:#fff;}.cls-5{mix-blend-mode:multiply;opacity:.53;}.cls-6{fill:#7648a2;stroke:#1d1d1b;stroke-miterlimit:10;stroke-width:5px;}</style></defs><g class="cls-3"><g id="Capa_18"><path class="cls-6" d="M347.05,204.29c-3.83-39.67,26.87-67.81,26.87-67.81v-46.06c-75.49,0-145.23-48.63-145.23-48.63,0,0-69.74,48.63-145.23,48.63v46.06s30.71,28.15,26.87,67.81c-3.84,39.66-17.92,61.41-30.71,67.81,0,0,51.82,103.64,149.07,103.64s149.07-103.64,149.07-103.64c-12.79-6.4-26.87-28.15-30.71-67.81Z"/><g class="cls-4"><path class="cls-2" d="M338.98,95.33c-29.61-4.53-58.25-14.52-85.04-27.83-8.95-4.46-17.72-9.29-26.21-14.62h1.93c-41.34,26.34-88.77,45.15-138.09,47.73,0,0,2.28-2.37,2.28-2.37,0,0-.06,34.92-.06,34.92l-.64-1.59c10.76,11.54,19.04,25.39,23.7,40.47.56,1.59,1.47,5.56,1.91,7.23.16.82.96,5.37,1.09,6.14.18,1.79.46,4.41.64,6.21.04,2.39.17,5.1.09,7.49-1.37,21.23-5.98,42.81-16.89,61.29-3.45,5.63-7.67,10.86-12.83,15.07,0,0,.23-1.31.23-1.31,9.11,16.03,20.17,30.96,32.67,44.54-6.59-6.5-12.8-13.39-18.51-20.69-5.91-7.5-11.41-15.34-16.37-23.53,0,0,.67-.59.67-.59,18.8-17.15,24.68-45.7,26.91-70.11,0,0,.22-4.75.22-4.75.03-2.27-.14-4.84-.21-7.12-.18-1.72-.49-4.19-.67-5.9-.14-.7-.94-5.03-1.1-5.83-4.05-17.3-13.32-33.26-25.54-46.08-.04-1.63-.04-37.02-.07-38.09,0,0,2.28-.13,2.28-.13,36.36-1.8,71.73-12.86,104.43-28.52,11.26-5.48,22.34-11.39,32.91-18.09,0,0,.95.62.95.62,33.38,21.36,70.38,37.59,109.32,45.45h0Z"/></g><g class="cls-5"><g class="cls-4"><path class="cls-1" d="M228.69,367.75c44.98-1.27,82.64-25.93,111.28-59.22,9.36-10.94,17.9-22.64,25.17-35.06l.54,3.03c-19.72-17.12-26.2-46.33-28.68-71.24-1.88-19.2,4.42-40.78,15.69-57.23,3.69-5.56,7.88-10.77,12.57-15.5l-.25.63c.22-9.95.58-25.02.92-34.92.34,9.9.69,24.82.92,34.92,0,0,0,.34,0,.34,0,0-.26.29-.26.29-12.89,14.52-22.3,32.53-25.08,51.83-.83,6.1-.85,13.89-.33,19.23,1.38,12.54,3.78,25.04,7.98,36.93,4.33,12.25,10.87,24.23,21.1,32.37-4.05,6.92-8.43,13.64-13.15,20.11-30.24,41.52-74.94,75.26-128.41,73.48h0Z"/></g><g class="cls-4"><path class="cls-1" d="M91.46,133.17c14.48,13.34,24.91,31.52,28.37,50.99.48,2.26.64,5.15.95,7.45.05,2.43.26,5.1.2,7.51,0,0-.24,5.01-.24,5.01-1.85,19.59-6.46,39.45-17.17,56.2-3.66,5.48-8.05,10.55-13.37,14.34,4.62-4.6,8.35-9.89,11.35-15.54,8.86-17.08,12.71-36.37,14.43-55.4,2.26-25.69-8.54-50.66-24.51-70.57h0Z"/></g></g></g></g></svg>